<svg width="1024" height="1024" viewBox="0 0 1024 1024" xmlns="http://www.w3.org/2000/svg">
  <defs>
    <linearGradient id="bgGradient" x1="0%" y1="0%" x2="100%" y2="100%">
      <stop offset="0%" style="stop-color:#5B9BD5;stop-opacity:1" />
      <stop offset="100%" style="stop-color:#4472C4;stop-opacity:1" />
    </linearGradient>
    <linearGradient id="checkGradient" x1="0%" y1="0%" x2="100%" y2="100%">
      <stop offset="0%" style="stop-color:#70AD47;stop-opacity:1" />
      <stop offset="100%" style="stop-color:#5B8E3D;stop-opacity:1" />
    </linearGradient>
  </defs>
  
  <!-- Rounded square background -->
  <rect width="1024" height="1024" rx="220" ry="220" fill="url(#bgGradient)"/>
  
  <!-- White document/paper background -->
  <rect x="200" y="180" width="624" height="664" rx="40" ry="40" fill="#FFFFFF"/>
  
  <!-- Document shadow -->
  <rect x="210" y="190" width="624" height="664" rx="40" ry="40" fill="#000000" opacity="0.08"/>
  
  <!-- Checkmark items -->
  <!-- Completed item 1 -->
  <circle cx="260" cy="280" r="32" fill="url(#checkGradient)"/>
  <path d="M 248 280 L 258 290 L 272 270" stroke="#FFFFFF" stroke-width="10" stroke-linecap="round" stroke-linejoin="round" fill="none"/>
  
  <!-- Incomplete item 2 -->
  <circle cx="260" cy="360" r="32" fill="none" stroke="#C8C8C8" stroke-width="8"/>
  
  <!-- Completed item 3 -->
  <circle cx="260" cy="440" r="32" fill="url(#checkGradient)"/>
  <path d="M 248 440 L 258 450 L 272 430" stroke="#FFFFFF" stroke-width="10" stroke-linecap="round" stroke-linejoin="round" fill="none"/>
  
  <!-- Incomplete item 4 -->
  <circle cx="260" cy="520" r="32" fill="none" stroke="#C8C8C8" stroke-width="8"/>
  
  <!-- Completed item 5 -->
  <circle cx="260" cy="600" r="32" fill="url(#checkGradient)"/>
  <path d="M 248 600 L 258 610 L 272 590" stroke="#FFFFFF" stroke-width="10" stroke-linecap="round" stroke-linejoin="round" fill="none"/>
  
  <!-- Lines/text placeholders -->
  <rect x="320" y="265" width="440" height="30" rx="4" fill="#E8E8E8" opacity="0.6"/>
  <rect x="320" y="345" width="360" height="30" rx="4" fill="#E8E8E8" opacity="0.6"/>
  <rect x="320" y="425" width="400" height="30" rx="4" fill="#E8E8E8" opacity="0.6"/>
  <rect x="320" y="505" width="320" height="30" rx="4" fill="#E8E8E8" opacity="0.6"/>
  <rect x="320" y="585" width="380" height="30" rx="4" fill="#E8E8E8" opacity="0.6"/>
  
  <!-- Subtle highlight -->
  <ellipse cx="512" cy="220" rx="200" ry="60" fill="#FFFFFF" opacity="0.15"/>
</svg>